<svg id="visual" viewBox="0 0 900 600" width="900" height="600" xmlns="http://www.w3.org/2000/svg" xmlns:xlink="http://www.w3.org/1999/xlink" version="1.1"><path d="M0 175L13.7 163C27.3 151 54.7 127 82 133C109.3 139 136.7 175 163.8 197C191 219 218 227 245.2 211C272.3 195 299.7 155 327 142C354.3 129 381.7 143 409 148C436.3 153 463.7 149 491 158C518.3 167 545.7 189 573 207C600.3 225 627.7 239 654.8 247C682 255 709 257 736.2 232C763.3 207 790.7 155 818 135C845.3 115 872.7 127 886.3 133L900 139L900 0L886.3 0C872.7 0 845.3 0 818 0C790.7 0 763.3 0 736.2 0C709 0 682 0 654.8 0C627.7 0 600.3 0 573 0C545.7 0 518.3 0 491 0C463.7 0 436.3 0 409 0C381.7 0 354.3 0 327 0C299.7 0 272.3 0 245.2 0C218 0 191 0 163.8 0C136.7 0 109.3 0 82 0C54.7 0 27.3 0 13.7 0L0 0Z" fill="#6198ff"></path><path d="M0 247L13.7 236C27.3 225 54.7 203 82 208C109.3 213 136.7 245 163.8 267C191 289 218 301 245.2 282C272.3 263 299.7 213 327 195C354.3 177 381.7 191 409 198C436.3 205 463.7 205 491 225C518.3 245 545.7 285 573 306C600.3 327 627.7 329 654.8 328C682 327 709 323 736.2 296C763.3 269 790.7 219 818 200C845.3 181 872.7 193 886.3 199L900 205L900 137L886.3 131C872.7 125 845.3 113 818 133C790.7 153 763.3 205 736.2 230C709 255 682 253 654.8 245C627.7 237 600.3 223 573 205C545.7 187 518.3 165 491 156C463.7 147 436.3 151 409 146C381.7 141 354.3 127 327 140C299.7 153 272.3 193 245.2 209C218 225 191 217 163.8 195C136.7 173 109.3 137 82 131C54.7 125 27.3 149 13.7 161L0 173Z" fill="#3c80ff"></path><path d="M0 349L13.7 346C27.3 343 54.7 337 82 349C109.3 361 136.7 391 163.8 398C191 405 218 389 245.2 359C272.3 329 299.7 285 327 280C354.3 275 381.7 309 409 319C436.3 329 463.7 315 491 332C518.3 349 545.7 397 573 423C600.3 449 627.7 453 654.8 441C682 429 709 401 736.2 373C763.3 345 790.7 317 818 308C845.3 299 872.7 309 886.3 314L900 319L900 203L886.3 197C872.7 191 845.3 179 818 198C790.7 217 763.3 267 736.2 294C709 321 682 325 654.8 326C627.7 327 600.3 325 573 304C545.7 283 518.3 243 491 223C463.7 203 436.3 203 409 196C381.7 189 354.3 175 327 193C299.7 211 272.3 261 245.2 280C218 299 191 287 163.8 265C136.7 243 109.3 211 82 206C54.7 201 27.3 223 13.7 234L0 245Z" fill="#0066ff"></path><path d="M0 535L13.7 538C27.3 541 54.7 547 82 541C109.3 535 136.7 517 163.8 510C191 503 218 507 245.2 507C272.3 507 299.7 503 327 511C354.3 519 381.7 539 409 542C436.3 545 463.7 531 491 532C518.3 533 545.7 549 573 553C600.3 557 627.7 549 654.8 540C682 531 709 521 736.2 518C763.3 515 790.7 519 818 523C845.3 527 872.7 531 886.3 533L900 535L900 317L886.3 312C872.7 307 845.3 297 818 306C790.7 315 763.3 343 736.2 371C709 399 682 427 654.8 439C627.7 451 600.3 447 573 421C545.7 395 518.3 347 491 330C463.7 313 436.3 327 409 317C381.7 307 354.3 273 327 278C299.7 283 272.3 327 245.2 357C218 387 191 403 163.8 396C136.7 389 109.3 359 82 347C54.7 335 27.3 341 13.7 344L0 347Z" fill="#0059dd"></path><path d="M0 601L13.7 601C27.3 601 54.7 601 82 601C109.3 601 136.7 601 163.8 601C191 601 218 601 245.2 601C272.3 601 299.7 601 327 601C354.3 601 381.7 601 409 601C436.3 601 463.7 601 491 601C518.3 601 545.7 601 573 601C600.3 601 627.7 601 654.8 601C682 601 709 601 736.2 601C763.3 601 790.7 601 818 601C845.3 601 872.7 601 886.3 601L900 601L900 533L886.3 531C872.7 529 845.3 525 818 521C790.7 517 763.3 513 736.2 516C709 519 682 529 654.8 538C627.7 547 600.3 555 573 551C545.7 547 518.3 531 491 530C463.7 529 436.3 543 409 540C381.7 537 354.3 517 327 509C299.7 501 272.3 505 245.2 505C218 505 191 501 163.8 508C136.7 515 109.3 533 82 539C54.7 545 27.3 539 13.7 536L0 533Z" fill="#004cbb"></path></svg>